<mxfile host="app.diagrams.net" modified="2024-03-31T16:16:31.117Z" agent="Mozilla/5.0 (Windows NT 10.0; Win64; x64; rv:123.0) Gecko/20100101 Firefox/123.0" etag="ryv_DEGwzOoe6BTk7OY1" version="24.1.0" type="device">
  <diagram name="Page-1" id="929967ad-93f9-6ef4-fab6-5d389245f69c">
    <mxGraphModel dx="733" dy="429" grid="1" gridSize="10" guides="1" tooltips="1" connect="1" arrows="1" fold="1" page="1" pageScale="1.5" pageWidth="1169" pageHeight="826" background="none" math="0" shadow="0">
      <root>
        <mxCell id="0" style=";html=1;" />
        <mxCell id="1" style=";html=1;" parent="0" />
        <mxCell id="1672d66443f91eb5-13" style="edgeStyle=orthogonalEdgeStyle;rounded=0;html=1;jettySize=auto;orthogonalLoop=1;endArrow=circlePlus;endFill=0;" parent="1" edge="1">
          <mxGeometry relative="1" as="geometry">
            <Array as="points">
              <mxPoint x="477" y="485" />
              <mxPoint x="517" y="485" />
            </Array>
            <mxPoint x="477.0000000000002" y="535" as="sourcePoint" />
          </mxGeometry>
        </mxCell>
        <mxCell id="hsE9dfF4Od-NRktNLgFB-34" value="&lt;span style=&quot;font-size:14.0pt;line-height:150%;&lt;br/&gt;font-family:&amp;quot;Times New Roman&amp;quot;,serif;mso-fareast-font-family:Calibri;mso-fareast-theme-font:&lt;br/&gt;minor-latin;mso-ansi-language:EN-US;mso-fareast-language:EN-US;mso-bidi-language:&lt;br/&gt;AR-SA&quot;&gt;Создать технический чертежа&lt;/span&gt;" style="ellipse;whiteSpace=wrap;html=1;" parent="1" vertex="1">
          <mxGeometry x="200" y="90" width="170" height="100" as="geometry" />
        </mxCell>
        <mxCell id="hsE9dfF4Od-NRktNLgFB-38" value="" style="endArrow=none;html=1;rounded=0;strokeWidth=1;entryX=0;entryY=0.5;entryDx=0;entryDy=0;" parent="1" target="hsE9dfF4Od-NRktNLgFB-34" edge="1">
          <mxGeometry width="50" height="50" relative="1" as="geometry">
            <mxPoint x="70" y="240" as="sourcePoint" />
            <mxPoint x="-100" y="421" as="targetPoint" />
          </mxGeometry>
        </mxCell>
        <mxCell id="hsE9dfF4Od-NRktNLgFB-41" value="&lt;font style=&quot;font-size: 14px;&quot;&gt;Чертежи и Технологии&lt;/font&gt;" style="rounded=0;whiteSpace=wrap;html=1;fillColor=none;" parent="1" vertex="1">
          <mxGeometry x="160" width="320" height="60" as="geometry" />
        </mxCell>
        <mxCell id="hsE9dfF4Od-NRktNLgFB-47" value="" style="endArrow=none;html=1;rounded=0;strokeWidth=1;entryX=0;entryY=0.5;entryDx=0;entryDy=0;" parent="1" target="hsE9dfF4Od-NRktNLgFB-56" edge="1">
          <mxGeometry width="50" height="50" relative="1" as="geometry">
            <mxPoint x="70" y="250" as="sourcePoint" />
            <mxPoint x="120" y="351" as="targetPoint" />
          </mxGeometry>
        </mxCell>
        <mxCell id="hsE9dfF4Od-NRktNLgFB-53" value="Инженер" style="shape=umlActor;verticalLabelPosition=bottom;verticalAlign=top;html=1;outlineConnect=0;" parent="1" vertex="1">
          <mxGeometry x="20" y="215" width="40" height="70" as="geometry" />
        </mxCell>
        <mxCell id="hsE9dfF4Od-NRktNLgFB-56" value="&lt;div style=&quot;font-size: 17px;&quot;&gt;&lt;font style=&quot;font-size: 17px;&quot;&gt;&lt;span style=&quot;line-height: 150%;&quot;&gt;Редактировать технический &lt;br&gt;&lt;/span&gt;&lt;/font&gt;&lt;/div&gt;&lt;div style=&quot;font-size: 17px;&quot;&gt;&lt;font style=&quot;font-size: 17px;&quot;&gt;&lt;span style=&quot;line-height: 150%;&quot;&gt;чертеж&lt;/span&gt;&lt;/font&gt;&lt;/div&gt;" style="ellipse;whiteSpace=wrap;html=1;" parent="1" vertex="1">
          <mxGeometry x="200" y="200" width="170" height="100" as="geometry" />
        </mxCell>
        <mxCell id="hsE9dfF4Od-NRktNLgFB-64" value="&lt;font style=&quot;font-size: 18px;&quot;&gt;Поиск технической документации&lt;/font&gt;" style="ellipse;whiteSpace=wrap;html=1;" parent="1" vertex="1">
          <mxGeometry x="200" y="310" width="170" height="100" as="geometry" />
        </mxCell>
        <mxCell id="hsE9dfF4Od-NRktNLgFB-72" value="" style="endArrow=none;html=1;rounded=0;strokeWidth=1;entryX=0;entryY=0.5;entryDx=0;entryDy=0;" parent="1" target="hsE9dfF4Od-NRktNLgFB-64" edge="1">
          <mxGeometry width="50" height="50" relative="1" as="geometry">
            <mxPoint x="70" y="260" as="sourcePoint" />
            <mxPoint x="110" y="575" as="targetPoint" />
          </mxGeometry>
        </mxCell>
        <mxCell id="aJms82pucHbP5OjZi7ao-17" value="" style="rounded=0;whiteSpace=wrap;html=1;fillColor=none;" parent="1" vertex="1">
          <mxGeometry x="160" width="480" height="660" as="geometry" />
        </mxCell>
        <mxCell id="jlIkuXn_E_BrfkCdR3N0-1" value="&lt;span style=&quot;font-size:14.0pt;line-height:150%;&lt;br/&gt;font-family:&amp;quot;Times New Roman&amp;quot;,serif;mso-fareast-font-family:Calibri;mso-fareast-theme-font:&lt;br/&gt;minor-latin;mso-ansi-language:EN-US;mso-fareast-language:EN-US;mso-bidi-language:&lt;br/&gt;AR-SA&quot;&gt;Получение технических чертежей&lt;br&gt;&lt;/span&gt;" style="ellipse;whiteSpace=wrap;html=1;" parent="1" vertex="1">
          <mxGeometry x="200" y="420" width="170" height="100" as="geometry" />
        </mxCell>
        <mxCell id="jlIkuXn_E_BrfkCdR3N0-2" value="" style="endArrow=none;html=1;rounded=0;strokeWidth=1;entryX=0;entryY=0.5;entryDx=0;entryDy=0;" parent="1" target="jlIkuXn_E_BrfkCdR3N0-1" edge="1">
          <mxGeometry width="50" height="50" relative="1" as="geometry">
            <mxPoint x="80" y="520" as="sourcePoint" />
            <mxPoint x="-100" y="751" as="targetPoint" />
          </mxGeometry>
        </mxCell>
        <mxCell id="jlIkuXn_E_BrfkCdR3N0-3" value="" style="endArrow=none;html=1;rounded=0;strokeWidth=1;entryX=0;entryY=0.5;entryDx=0;entryDy=0;" parent="1" target="jlIkuXn_E_BrfkCdR3N0-5" edge="1">
          <mxGeometry width="50" height="50" relative="1" as="geometry">
            <mxPoint x="80" y="540" as="sourcePoint" />
            <mxPoint x="120" y="681" as="targetPoint" />
          </mxGeometry>
        </mxCell>
        <mxCell id="jlIkuXn_E_BrfkCdR3N0-4" value="&lt;div&gt;Технолог&lt;/div&gt;" style="shape=umlActor;verticalLabelPosition=bottom;verticalAlign=top;html=1;outlineConnect=0;" parent="1" vertex="1">
          <mxGeometry x="20" y="490" width="40" height="70" as="geometry" />
        </mxCell>
        <mxCell id="jlIkuXn_E_BrfkCdR3N0-5" value="&lt;div style=&quot;font-size: 17px;&quot;&gt;&lt;font style=&quot;font-size: 17px;&quot;&gt;&lt;span style=&quot;line-height: 150%;&quot;&gt;Оценка технических чертежей&lt;br&gt;&lt;/span&gt;&lt;/font&gt;&lt;/div&gt;" style="ellipse;whiteSpace=wrap;html=1;" parent="1" vertex="1">
          <mxGeometry x="200" y="530" width="170" height="100" as="geometry" />
        </mxCell>
        <mxCell id="jlIkuXn_E_BrfkCdR3N0-13" value="&lt;font size=&quot;1&quot;&gt;&lt;span style=&quot;line-height: 150%; font-size: 15px;&quot;&gt;Мониторинг эффективности производственных процессов&lt;/span&gt;&lt;/font&gt;" style="ellipse;whiteSpace=wrap;html=1;" parent="1" vertex="1">
          <mxGeometry x="400" y="420" width="170" height="100" as="geometry" />
        </mxCell>
        <mxCell id="jlIkuXn_E_BrfkCdR3N0-14" value="" style="endArrow=none;html=1;rounded=0;strokeWidth=1;entryX=1;entryY=0.5;entryDx=0;entryDy=0;" parent="1" target="jlIkuXn_E_BrfkCdR3N0-13" edge="1">
          <mxGeometry width="50" height="50" relative="1" as="geometry">
            <mxPoint x="690" y="470" as="sourcePoint" />
            <mxPoint x="-100" y="881" as="targetPoint" />
          </mxGeometry>
        </mxCell>
        <mxCell id="jlIkuXn_E_BrfkCdR3N0-16" value="Руководитель предприятия" style="shape=umlActor;verticalLabelPosition=bottom;verticalAlign=top;html=1;outlineConnect=0;" parent="1" vertex="1">
          <mxGeometry x="700" y="430" width="40" height="70" as="geometry" />
        </mxCell>
        <mxCell id="jlIkuXn_E_BrfkCdR3N0-31" value="" style="endArrow=none;html=1;rounded=0;strokeWidth=1;entryX=1;entryY=0.5;entryDx=0;entryDy=0;" parent="1" target="jlIkuXn_E_BrfkCdR3N0-33" edge="1">
          <mxGeometry width="50" height="50" relative="1" as="geometry">
            <mxPoint x="680" y="250" as="sourcePoint" />
            <mxPoint x="710" y="321" as="targetPoint" />
          </mxGeometry>
        </mxCell>
        <mxCell id="jlIkuXn_E_BrfkCdR3N0-32" value="Администратор&lt;br&gt;ИС системы" style="shape=umlActor;verticalLabelPosition=bottom;verticalAlign=top;html=1;outlineConnect=0;" parent="1" vertex="1">
          <mxGeometry x="700" y="215" width="40" height="70" as="geometry" />
        </mxCell>
        <mxCell id="jlIkuXn_E_BrfkCdR3N0-33" value="&lt;div style=&quot;font-size: 17px;&quot;&gt;&lt;font style=&quot;font-size: 17px;&quot;&gt;&lt;span style=&quot;line-height: 150%;&quot;&gt;Обновление системы&lt;/span&gt;&lt;/font&gt;&lt;/div&gt;" style="ellipse;whiteSpace=wrap;html=1;" parent="1" vertex="1">
          <mxGeometry x="400" y="200" width="170" height="100" as="geometry" />
        </mxCell>
        <mxCell id="jlIkuXn_E_BrfkCdR3N0-34" value="&lt;font style=&quot;font-size: 18px;&quot;&gt;Настройка системы&lt;br&gt;&lt;/font&gt;" style="ellipse;whiteSpace=wrap;html=1;" parent="1" vertex="1">
          <mxGeometry x="400" y="90" width="170" height="100" as="geometry" />
        </mxCell>
        <mxCell id="jlIkuXn_E_BrfkCdR3N0-35" value="" style="endArrow=none;html=1;rounded=0;strokeWidth=1;entryX=1;entryY=0.5;entryDx=0;entryDy=0;" parent="1" target="jlIkuXn_E_BrfkCdR3N0-34" edge="1">
          <mxGeometry width="50" height="50" relative="1" as="geometry">
            <mxPoint x="680" y="240" as="sourcePoint" />
            <mxPoint x="700" y="545" as="targetPoint" />
          </mxGeometry>
        </mxCell>
        <mxCell id="jlIkuXn_E_BrfkCdR3N0-38" value="&lt;div style=&quot;font-size: 17px;&quot;&gt;&lt;font style=&quot;font-size: 17px;&quot;&gt;&lt;span style=&quot;line-height: 150%;&quot;&gt;Восстановление системы&lt;br&gt;&lt;/span&gt;&lt;/font&gt;&lt;/div&gt;" style="ellipse;whiteSpace=wrap;html=1;" parent="1" vertex="1">
          <mxGeometry x="400" y="310" width="170" height="100" as="geometry" />
        </mxCell>
        <mxCell id="jlIkuXn_E_BrfkCdR3N0-39" value="" style="endArrow=none;html=1;rounded=0;strokeWidth=1;entryX=1;entryY=0.5;entryDx=0;entryDy=0;" parent="1" target="jlIkuXn_E_BrfkCdR3N0-38" edge="1">
          <mxGeometry width="50" height="50" relative="1" as="geometry">
            <mxPoint x="680" y="280" as="sourcePoint" />
            <mxPoint x="580" y="370" as="targetPoint" />
          </mxGeometry>
        </mxCell>
      </root>
    </mxGraphModel>
  </diagram>
</mxfile>
